<svg width="26" height="26" viewBox="0 0 26 26" fill="none" xmlns="http://www.w3.org/2000/svg">
<path d="M25 13C25 16.3062 23.6629 19.3001 21.5 21.4705C19.3273 23.6508 16.3212 25 13 25C6.37258 25 1 19.6274 1 13C1 9.6788 2.34923 6.67273 4.52946 4.5C6.69986 2.33708 9.69378 1 13 1C19.6274 1 25 6.37258 25 13Z" fill="white"/>
<path d="M21.5 21.4705C23.6629 19.3001 25 16.3062 25 13C25 6.37258 19.6274 1 13 1C9.69378 1 6.69986 2.33708 4.52946 4.5C2.34923 6.67273 1 9.6788 1 13C1 19.6274 6.37258 25 13 25C16.3212 25 19.3273 23.6508 21.5 21.4705ZM4.52946 4.5L21.5 21.4705" stroke="#FF0202" stroke-width="2"/>
</svg>
