<svg width="14" height="14" viewBox="0 0 14 14" fill="none" xmlns="http://www.w3.org/2000/svg">
<path d="M13.096 0.9765C13.0307 1.0745 12.963 1.17017 12.893 1.2635C12.823 1.35683 12.7553 1.45017 12.69 1.5435C12.396 1.9635 12.102 2.38117 11.808 2.7965C11.5187 3.21183 11.2293 3.63183 10.94 4.0565C11.01 4.0565 11.0637 4.0565 11.101 4.0565C11.1383 4.0565 11.1687 4.0565 11.192 4.0565C11.22 4.0565 11.2503 4.0565 11.283 4.0565C11.3157 4.0565 11.3647 4.05883 11.43 4.0635C11.4953 4.0635 11.584 4.0635 11.696 4.0635C11.8127 4.0635 11.9667 4.0635 12.158 4.0635C12.2793 4.0635 12.3983 4.0635 12.515 4.0635C12.6363 4.0635 12.7577 4.06817 12.879 4.0775C12.9023 4.08217 12.928 4.08683 12.956 4.0915C12.984 4.0915 13.0097 4.09617 13.033 4.1055L13.075 4.1265C13.075 4.1265 13.089 4.13117 13.117 4.1405C13.173 4.17317 13.2197 4.2105 13.257 4.2525C13.3223 4.34583 13.341 4.45083 13.313 4.5675C13.3083 4.60017 13.2967 4.6305 13.278 4.6585C13.264 4.68183 13.2477 4.70283 13.229 4.7215C13.1917 4.75883 13.1473 4.7845 13.096 4.7985C13.0447 4.8265 12.991 4.84283 12.935 4.8475C12.9117 4.85217 12.8883 4.85683 12.865 4.8615C12.8463 4.8615 12.8253 4.8615 12.802 4.8615H10.261C10.233 4.8615 10.205 4.8615 10.177 4.8615C10.149 4.8615 10.121 4.85917 10.093 4.8545C10.079 4.84983 10.065 4.8475 10.051 4.8475C10.0417 4.8475 10.0323 4.84517 10.023 4.8405C10.0043 4.83583 9.98567 4.8335 9.967 4.8335C9.953 4.82883 9.93433 4.82417 9.911 4.8195C9.85967 4.7915 9.82 4.76583 9.792 4.7425C9.736 4.7005 9.70567 4.65617 9.701 4.6095V4.6025C9.69167 4.57917 9.68467 4.55817 9.68 4.5395C9.68 4.52083 9.68233 4.4975 9.687 4.4695C9.687 4.46483 9.68467 4.4625 9.68 4.4625C9.68 4.45783 9.68 4.45083 9.68 4.4415C9.68 4.4135 9.68467 4.38783 9.694 4.3645C9.70333 4.3365 9.71267 4.3085 9.722 4.2805C9.73133 4.2665 9.73833 4.2525 9.743 4.2385C9.75233 4.21983 9.764 4.2035 9.778 4.1895C9.78733 4.16617 9.799 4.14283 9.813 4.1195C9.83167 4.09617 9.84567 4.07283 9.855 4.0495C9.86433 4.03083 9.87367 4.01217 9.883 3.9935C9.897 3.97017 9.90867 3.9515 9.918 3.9375C9.93667 3.91883 9.95067 3.9025 9.96 3.8885C9.974 3.86983 9.98567 3.85117 9.995 3.8325L10.359 3.3215L11.01 2.3765C11.1127 2.24117 11.213 2.10117 11.311 1.9565C11.4137 1.80717 11.5187 1.65317 11.626 1.4945C11.7053 1.37317 11.7777 1.26817 11.843 1.1795C11.9083 1.08617 11.9783 0.985833 12.053 0.8785C11.8897 0.8785 11.7357 0.8785 11.591 0.8785C11.451 0.8785 11.311 0.8785 11.171 0.8785C11.031 0.873833 10.884 0.8715 10.73 0.8715C10.5807 0.866833 10.415 0.862167 10.233 0.8575C10.1677 0.852833 10.0907 0.8435 10.002 0.8295C9.918 0.810833 9.848 0.775834 9.792 0.7245C9.74067 0.677833 9.71033 0.628833 9.701 0.5775C9.687 0.530833 9.68 0.474833 9.68 0.4095C9.68 0.334833 9.701 0.2695 9.743 0.2135C9.78967 0.152833 9.848 0.1085 9.918 0.0805002C10.016 0.0431668 10.1117 0.0245001 10.205 0.0245001C10.2563 0.0198335 10.3077 0.0175002 10.359 0.0175002C10.4103 0.0175002 10.4593 0.0128334 10.506 0.00349995H10.541C10.6763 -0.00116665 10.877 -0.00116665 11.143 0.00349995C11.4137 0.00349995 11.752 0.00349995 12.158 0.00349995C12.2093 0.00349995 12.263 0.00349995 12.319 0.00349995C12.375 -0.00116665 12.4287 -0.00116665 12.48 0.00349995C12.5873 0.0128334 12.6993 0.0151667 12.816 0.0104999C12.9373 0.00583326 13.047 0.0315 13.145 0.0875001C13.173 0.1015 13.1987 0.117833 13.222 0.1365C13.2453 0.155167 13.271 0.1715 13.299 0.1855C13.355 0.236833 13.3807 0.2975 13.376 0.3675C13.376 0.4375 13.3597 0.509833 13.327 0.5845C13.299 0.659167 13.2617 0.7315 13.215 0.8015C13.1683 0.8715 13.1287 0.929833 13.096 0.9765Z" fill="#2200FF"/>
<path d="M7.32 5.4885C7.18 5.6985 7.035 5.9035 6.885 6.1035C6.735 6.3035 6.59 6.5035 6.45 6.7035C5.82 7.6035 5.19 8.4985 4.56 9.3885C3.94 10.2785 3.32 11.1785 2.7 12.0885C2.85 12.0885 2.965 12.0885 3.045 12.0885C3.125 12.0885 3.19 12.0885 3.24 12.0885C3.3 12.0885 3.365 12.0885 3.435 12.0885C3.505 12.0885 3.61 12.0935 3.75 12.1035C3.89 12.1035 4.08 12.1035 4.32 12.1035C4.57 12.1035 4.9 12.1035 5.31 12.1035C5.57 12.1035 5.825 12.1035 6.075 12.1035C6.335 12.1035 6.595 12.1135 6.855 12.1335C6.905 12.1435 6.96 12.1535 7.02 12.1635C7.08 12.1635 7.135 12.1735 7.185 12.1935L7.275 12.2385C7.275 12.2385 7.305 12.2485 7.365 12.2685C7.485 12.3385 7.585 12.4185 7.665 12.5085C7.805 12.7085 7.845 12.9335 7.785 13.1835C7.775 13.2535 7.75 13.3185 7.71 13.3785C7.68 13.4285 7.645 13.4735 7.605 13.5135C7.525 13.5935 7.43 13.6485 7.32 13.6785C7.21 13.7385 7.095 13.7735 6.975 13.7835C6.925 13.7935 6.875 13.8035 6.825 13.8135C6.785 13.8135 6.74 13.8135 6.69 13.8135H1.245C1.185 13.8135 1.125 13.8135 1.065 13.8135C1.005 13.8135 0.945 13.8085 0.885 13.7985C0.855 13.7885 0.825 13.7835 0.795 13.7835C0.775 13.7835 0.755 13.7785 0.735 13.7685C0.695 13.7585 0.655 13.7535 0.615 13.7535C0.585 13.7435 0.545 13.7335 0.495 13.7235C0.385 13.6635 0.3 13.6085 0.24 13.5585C0.12 13.4685 0.055 13.3735 0.045 13.2735V13.2585C0.025 13.2085 0.00999998 13.1635 0 13.1235C0 13.0835 0.00499999 13.0335 0.015 12.9735C0.015 12.9635 0.00999998 12.9585 0 12.9585C0 12.9485 0 12.9335 0 12.9135C0 12.8535 0.01 12.7985 0.03 12.7485C0.05 12.6885 0.07 12.6285 0.09 12.5685C0.11 12.5385 0.125 12.5085 0.135 12.4785C0.155 12.4385 0.18 12.4035 0.21 12.3735C0.23 12.3235 0.255 12.2735 0.285 12.2235C0.325 12.1735 0.355 12.1235 0.375 12.0735C0.395 12.0335 0.415 11.9935 0.435 11.9535C0.465 11.9035 0.49 11.8635 0.51 11.8335C0.55 11.7935 0.58 11.7585 0.6 11.7285C0.63 11.6885 0.655 11.6485 0.675 11.6085L1.455 10.5135L2.85 8.4885C3.07 8.1985 3.285 7.8985 3.495 7.5885C3.715 7.2685 3.94 6.9385 4.17 6.5985C4.34 6.3385 4.495 6.1135 4.635 5.9235C4.775 5.7235 4.925 5.5085 5.085 5.2785C4.735 5.2785 4.405 5.2785 4.095 5.2785C3.795 5.2785 3.495 5.2785 3.195 5.2785C2.895 5.2685 2.58 5.2635 2.25 5.2635C1.93 5.2535 1.575 5.2435 1.185 5.2335C1.045 5.2235 0.88 5.2035 0.69 5.1735C0.51 5.1335 0.36 5.0585 0.24 4.9485C0.13 4.8485 0.065 4.7435 0.045 4.6335C0.015 4.5335 0 4.4135 0 4.2735C0 4.1135 0.045 3.9735 0.135 3.8535C0.235 3.7235 0.36 3.6285 0.51 3.5685C0.72 3.4885 0.925 3.4485 1.125 3.4485C1.235 3.4385 1.345 3.4335 1.455 3.4335C1.565 3.4335 1.67 3.4235 1.77 3.4035H1.845C2.135 3.3935 2.565 3.3935 3.135 3.4035C3.715 3.4035 4.44 3.4035 5.31 3.4035C5.42 3.4035 5.535 3.4035 5.655 3.4035C5.775 3.3935 5.89 3.3935 6 3.4035C6.23 3.4235 6.47 3.4285 6.72 3.4185C6.98 3.4085 7.215 3.4635 7.425 3.5835C7.485 3.6135 7.54 3.6485 7.59 3.6885C7.64 3.7285 7.695 3.7635 7.755 3.7935C7.875 3.9035 7.93 4.0335 7.92 4.1835C7.92 4.3335 7.885 4.4885 7.815 4.6485C7.755 4.8085 7.675 4.9635 7.575 5.1135C7.475 5.2635 7.39 5.3885 7.32 5.4885Z" fill="#2200FF"/>
</svg>
