<svg width="28" height="28" viewBox="0 0 28 28" fill="none" xmlns="http://www.w3.org/2000/svg">
<path fill-rule="evenodd" clip-rule="evenodd" d="M8.31444 11.7493L23.1152 26.7108C25.3353 28.955 29.0355 25.9627 26.8154 23.3445L11.6446 8.75696C13.1247 1.57542 7.5744 0.278755 4.61426 0.528114L8.31444 4.2685L7.2044 7.26081L3.87422 8.00889L0.544024 5.01658C-0.0480079 12.1981 5.47762 12.4973 8.31444 11.7493ZM24.9653 25.9627C25.5784 25.9627 26.0754 25.4603 26.0754 24.8406C26.0754 24.2209 25.5784 23.7185 24.9653 23.7185C24.3523 23.7185 23.8553 24.2209 23.8553 24.8406C23.8553 25.4603 24.3523 25.9627 24.9653 25.9627Z" fill="#8B8B8B" stroke="black"/>
</svg>
