<svg width="16" height="17" viewBox="0 0 16 17" fill="none" xmlns="http://www.w3.org/2000/svg">
<path d="M4.0002 8C4.0002 5.79086 5.79106 4 8.0002 4C10.2093 4 12.0002 5.79086 12.0002 8C12.0002 9.12038 11.5396 10.1332 10.7974 10.8593C10.4275 11.2396 9.76827 12.3 10.0898 13.5H5.91058C6.23212 12.3 5.57285 11.2396 5.20302 10.8593C4.46082 10.1332 4.0002 9.12038 4.0002 8Z" fill="#FEF56C"/>
<path d="M5.91058 15H10.0898M7.5002 16.5H8.5002M13.6342 8.5H15.5002M8.0002 2.5V0.5M12.5002 4.5L14.0002 3M2.36602 8.5H0.5M3.5 4.5L2 3M12.0002 8C12.0002 5.79086 10.2093 4 8.0002 4C5.79106 4 4.0002 5.79086 4.0002 8C4.0002 9.12038 4.46082 10.1332 5.20302 10.8593C5.57285 11.2396 6.23212 12.3 5.91058 13.5H10.0898C9.76827 12.3 10.4275 11.2396 10.7974 10.8593C11.5396 10.1332 12.0002 9.12038 12.0002 8Z" stroke="black" stroke-linecap="round"/>
</svg>
