<svg width="37" height="37" viewBox="0 0 37 37" fill="none" xmlns="http://www.w3.org/2000/svg">
<path d="M23.3404 0.67621C27.3512 1.49095 28.4451 3.57304 28.8097 5.29303C32.596 5.06131 35.0684 6.85294 35.9153 8.67513C37.2809 11.6133 35.5615 13.4503 33.8344 14.634C36.5876 16.5771 37.0681 18.5101 35.9153 20.2298C34.6454 22.1243 31.166 23.1262 28.8097 22.9456C28.2284 25.7373 26.5595 26.7851 24.0698 27.2909C20.0591 28.1056 17.5528 26.3725 16.4128 24.826C13.4054 26.5549 10.0683 26.0115 8.02657 24.826C4.73431 22.9143 5.4831 20.7185 6.06737 19.0255C2.33793 18.511 0.637604 16.3039 0.512199 14.3841C0.309994 11.2883 2.65857 9.85411 4.76739 9.05062C3.50266 6.41799 5.26626 4.19526 7.417 3.13624C10.885 1.42861 13.7074 2.18984 15.6834 3.12041C17.5065 0.676213 20.853 0.170928 23.3404 0.67621Z" fill="white" stroke="black" stroke-linecap="round"/>
<path d="M15 27.9992C14.1257 27.9992 13.3547 28.2527 12.8154 28.6379C12.2752 29.0238 12 29.5122 12 29.9992C12 30.4862 12.2752 30.9746 12.8154 31.3605C13.3547 31.7457 14.1257 31.9992 15 31.9992C15.8743 31.9992 16.6453 31.7457 17.1846 31.3605C17.7248 30.9746 18 30.4862 18 29.9992C18 29.5122 17.7248 29.0238 17.1846 28.6379C16.6453 28.2527 15.8743 27.9992 15 27.9992Z" fill="white" stroke="black"/>
<path d="M12 32.9992C10.7855 32.9992 10 33.7691 10 34.4992C10 35.2293 10.7855 35.9992 12 35.9992C13.2145 35.9992 14 35.2293 14 34.4992C14 33.7691 13.2145 32.9992 12 32.9992Z" fill="white" stroke="black"/>
</svg>
