<svg width="96" height="96" viewBox="0 0 96 96" fill="none" xmlns="http://www.w3.org/2000/svg">
<path fill-rule="evenodd" clip-rule="evenodd" d="M29.0971 31.8472C29.7102 29.3657 34.3837 24.6154 40.1104 23.3392C47.2688 21.744 52.3062 26.2638 52.5713 26.7956C55.4877 25.998 65.6485 26.3651 70.3253 31.0272C75.393 36.0788 73.6044 41.9281 73.3063 42.7257C75.3353 44.5049 78.0417 49.8207 76.5884 54.9784C74.7968 61.337 67.4112 64.0564 66.7481 63.9957C65.7451 66.8922 59.5051 71.6848 52.8365 72.7921C46.1678 73.8994 41.9653 70.2536 41.436 69.6016C37.194 70.1333 30.9365 69.0698 26.338 65.6135C21.7047 62.1309 21.6374 56.1306 22.3527 53.3832C20.2067 51.6107 16.4666 46.5236 18.6739 40.3553C20.8812 34.1869 26.5424 32.1131 29.0971 31.8472ZM37.8393 48.3315L34.0125 41.6846C33.4822 40.3553 35.3381 38.4941 36.9289 40.0894L40.9087 47.0022C41.436 47.7998 41.7012 48.8633 40.9087 49.9268L37.235 56.3078C35.8684 58.1689 33.4822 56.5737 34.0125 54.9784L37.8393 48.3315ZM59.1995 53.3832H48.3293C47.0037 53.3832 45.9432 56.3078 48.3293 57.1054H59.1995C60.7903 57.1054 61.3205 53.9149 59.1995 53.3832Z" fill="url(#paint0_linear_17_265)"/>
<path d="M34.0125 41.6846L37.8393 48.3315L34.0125 54.9784C33.4822 56.5737 35.8684 58.1689 37.235 56.3078L40.9087 49.9268C41.7012 48.8633 41.436 47.7998 40.9087 47.0022L36.9289 40.0894C35.3381 38.4941 33.4822 40.3553 34.0125 41.6846Z" fill="white"/>
<path d="M48.3293 53.3832H59.1995C61.3205 53.9149 60.7903 57.1054 59.1995 57.1054H48.3293C45.9432 56.3078 47.0037 53.3832 48.3293 53.3832Z" fill="white"/>
<path fill-rule="evenodd" clip-rule="evenodd" d="M29.0971 31.8472C29.7102 29.3657 34.3837 24.6154 40.1104 23.3392C47.2688 21.744 52.3062 26.2638 52.5713 26.7956C55.4877 25.998 65.6485 26.3651 70.3253 31.0272C75.393 36.0788 73.6044 41.9281 73.3063 42.7257C75.3353 44.5049 78.0417 49.8207 76.5884 54.9784C74.7968 61.337 67.4112 64.0564 66.7481 63.9957C65.7451 66.8922 59.5051 71.6848 52.8365 72.7921C46.1678 73.8994 41.9653 70.2536 41.436 69.6016C37.194 70.1333 30.9365 69.0698 26.338 65.6135C21.7047 62.1309 21.6374 56.1306 22.3527 53.3832C20.2067 51.6107 16.4666 46.5236 18.6739 40.3553C20.8812 34.1869 26.5424 32.1131 29.0971 31.8472ZM37.8393 48.3315L34.0125 41.6846C33.4822 40.3553 35.3381 38.4941 36.9289 40.0894L40.9087 47.0022C41.436 47.7998 41.7012 48.8633 40.9087 49.9268L37.235 56.3078C35.8684 58.1689 33.4822 56.5737 34.0125 54.9784L37.8393 48.3315ZM59.1995 53.3832H48.3293C47.0037 53.3832 45.9432 56.3078 48.3293 57.1054H59.1995C60.7903 57.1054 61.3205 53.9149 59.1995 53.3832Z" stroke="black" stroke-linecap="round"/>
<path d="M34.0125 41.6846L37.8393 48.3315L34.0125 54.9784C33.4822 56.5737 35.8684 58.1689 37.235 56.3078L40.9087 49.9268C41.7012 48.8633 41.436 47.7998 40.9087 47.0022L36.9289 40.0894C35.3381 38.4941 33.4822 40.3553 34.0125 41.6846Z" stroke="black" stroke-linecap="round"/>
<path d="M48.3293 53.3832H59.1995C61.3205 53.9149 60.7903 57.1054 59.1995 57.1054H48.3293C45.9432 56.3078 47.0037 53.3832 48.3293 53.3832Z" stroke="black" stroke-linecap="round"/>
<defs>
<linearGradient id="paint0_linear_17_265" x1="46.7643" y1="23" x2="46.7643" y2="73" gradientUnits="userSpaceOnUse">
<stop stop-color="#A59DFF"/>
<stop offset="0.490385" stop-color="#7D9EFF"/>
<stop offset="1" stop-color="#1E29FF"/>
</linearGradient>
</defs>
</svg>
