<svg width="63" height="63" viewBox="0 0 63 63" fill="none" xmlns="http://www.w3.org/2000/svg">
<path fill-rule="evenodd" clip-rule="evenodd" d="M13.0971 15.8472C13.7102 13.3657 18.3837 8.61542 24.1104 7.33921C31.2688 5.74396 37.7178 10.2638 37.9829 10.7956C40.8993 9.99797 51.0601 10.3651 55.7369 15.0272C60.8046 20.0788 59.016 25.9281 58.7179 26.7257C60.7469 28.5049 63.4533 33.8207 62 38.9784C60.2084 45.337 52.8228 48.0564 52.1597 47.9957C51.1567 50.8922 44.9167 55.6848 38.248 56.7921C31.5794 57.8994 25.9653 54.2536 25.436 53.6016C21.194 54.1333 14.9365 53.0698 10.338 49.6135C5.70466 46.1309 5.63735 40.1306 6.35267 37.3832C4.20671 35.6107 0.466619 30.5236 2.67389 24.3553C4.88116 18.1869 10.5424 16.1131 13.0971 15.8472ZM21.8393 32.3315L18.0125 25.6846C17.4822 24.3553 19.3381 22.4941 20.9289 24.0894L24.9087 31.0022C25.436 31.7998 25.7012 32.8633 24.9087 33.9268L21.235 40.3078C19.8684 42.1689 17.4822 40.5737 18.0125 38.9784L21.8393 32.3315ZM43.1995 37.3832H32.3293C31.0037 37.3832 29.9432 40.3078 32.3293 41.1054H43.1995C44.7903 41.1054 45.3205 37.9149 43.1995 37.3832Z" fill="url(#paint0_linear_17_264)"/>
<path d="M18.0125 25.6846L21.8393 32.3315L18.0125 38.9784C17.4822 40.5737 19.8684 42.1689 21.235 40.3078L24.9087 33.9268C25.7012 32.8633 25.436 31.7998 24.9087 31.0022L20.9289 24.0894C19.3381 22.4941 17.4822 24.3553 18.0125 25.6846Z" fill="white"/>
<path d="M32.3293 37.3832H43.1995C45.3205 37.9149 44.7903 41.1054 43.1995 41.1054H32.3293C29.9432 40.3078 31.0037 37.3832 32.3293 37.3832Z" fill="white"/>
<path fill-rule="evenodd" clip-rule="evenodd" d="M13.0971 15.8472C13.7102 13.3657 18.3837 8.61542 24.1104 7.33921C31.2688 5.74396 37.7178 10.2638 37.9829 10.7956C40.8993 9.99797 51.0601 10.3651 55.7369 15.0272C60.8046 20.0788 59.016 25.9281 58.7179 26.7257C60.7469 28.5049 63.4533 33.8207 62 38.9784C60.2084 45.337 52.8228 48.0564 52.1597 47.9957C51.1567 50.8922 44.9167 55.6848 38.248 56.7921C31.5794 57.8994 25.9653 54.2536 25.436 53.6016C21.194 54.1333 14.9365 53.0698 10.338 49.6135C5.70466 46.1309 5.63735 40.1306 6.35267 37.3832C4.20671 35.6107 0.466619 30.5236 2.67389 24.3553C4.88116 18.1869 10.5424 16.1131 13.0971 15.8472ZM21.8393 32.3315L18.0125 25.6846C17.4822 24.3553 19.3381 22.4941 20.9289 24.0894L24.9087 31.0022C25.436 31.7998 25.7012 32.8633 24.9087 33.9268L21.235 40.3078C19.8684 42.1689 17.4822 40.5737 18.0125 38.9784L21.8393 32.3315ZM43.1995 37.3832H32.3293C31.0037 37.3832 29.9432 40.3078 32.3293 41.1054H43.1995C44.7903 41.1054 45.3205 37.9149 43.1995 37.3832Z" stroke="black" stroke-linecap="round"/>
<path d="M18.0125 25.6846L21.8393 32.3315L18.0125 38.9784C17.4822 40.5737 19.8684 42.1689 21.235 40.3078L24.9087 33.9268C25.7012 32.8633 25.436 31.7998 24.9087 31.0022L20.9289 24.0894C19.3381 22.4941 17.4822 24.3553 18.0125 25.6846Z" stroke="black" stroke-linecap="round"/>
<path d="M32.3293 37.3832H43.1995C45.3205 37.9149 44.7903 41.1054 43.1995 41.1054H32.3293C29.9432 40.3078 31.0037 37.3832 32.3293 37.3832Z" stroke="black" stroke-linecap="round"/>
<defs>
<linearGradient id="paint0_linear_17_264" x1="30.7643" y1="7" x2="30.7643" y2="57" gradientUnits="userSpaceOnUse">
<stop stop-color="#A59DFF"/>
<stop offset="0.490385" stop-color="#7D9EFF"/>
<stop offset="1" stop-color="#1E29FF"/>
</linearGradient>
</defs>
</svg>
